PathFileType	4	(X/Y/Z)	/Users/itak/Documents/Research/Walk-IL/dataset/trc/00418_00012.trc
DataRate	CameraRate	NumFrames	NumMarkers	Units	OrigDataRate	OrigDataStartFrame	OrigNumFrames
100.000000	100.000000	4	54	mm	100.000000	133	355
Frame#	Time	RPSI			LPSI			L3			STRN			T10			C7			CLAV			RBAK			LBAK			LSHO			LUPA			LAEL			LAOL			LWTS			LWPS			LFRA			LHPS			LHTS			RSHO			RUPA			RAEL			RAOL			RWTS			RWPS			RFRA			RIFD			RHPS			RBHD			LFHD			RFHD			LBHD			LHIP			RHIP			RASI			LASI			LKNE			LTHI			LANK			LTIP			LTOE			LMT1			LMT5			LHEE			RKNE			RTHI			RANK			RTIP			RTOE			RMT1			RMT5			RHEE			RHTS			LIFD			*53			
		X1	Y1	Z1	X2	Y2	Z2	X3	Y3	Z3	X4	Y4	Z4	X5	Y5	Z5	X6	Y6	Z6	X7	Y7	Z7	X8	Y8	Z8	X9	Y9	Z9	X10	Y10	Z10	X11	Y11	Z11	X12	Y12	Z12	X13	Y13	Z13	X14	Y14	Z14	X15	Y15	Z15	X16	Y16	Z16	X17	Y17	Z17	X18	Y18	Z18	X19	Y19	Z19	X20	Y20	Z20	X21	Y21	Z21	X22	Y22	Z22	X23	Y23	Z23	X24	Y24	Z24	X25	Y25	Z25	X26	Y26	Z26	X27	Y27	Z27	X28	Y28	Z28	X29	Y29	Z29	X30	Y30	Z30	X31	Y31	Z31	X32	Y32	Z32	X33	Y33	Z33	X34	Y34	Z34	X35	Y35	Z35	X36	Y36	Z36	X37	Y37	Z37	X38	Y38	Z38	X39	Y39	Z39	X40	Y40	Z40	X41	Y41	Z41	X42	Y42	Z42	X43	Y43	Z43	X44	Y44	Z44	X45	Y45	Z45	X46	Y46	Z46	X47	Y47	Z47	X48	Y48	Z48	X49	Y49	Z49	X50	Y50	Z50	X51	Y51	Z51	X52	Y52	Z52	X53	Y53	Z53	X54	Y54	Z54	

134	1.33	-502.1974182128906	946.732666015625	-660.144775390625	-439.0698852539062	950.3256225585938	-778.1062622070312	-473.3609008789062	1028.154663085938	-711.37548828125	-282.8909606933594	1189.129760742188	-584.4476928710938	-484.2611999511719	1129.800170898438	-718.7293090820312	-461.9163208007812	1380.819458007812	-707.8829956054688	-332.4936218261719	1307.013549804688	-613.4664306640625	-525.6541748046875	1231.76806640625	-675.3677978515625	-412.0907592773438	1347.777709960938	-799.3316650390625	-314.1047058105469	1365.2216796875	-792.13427734375	-296.4913940429688	1253.841918945312	-871.1560668945312	-280.1001586914062	1057.682373046875	-898.164794921875	-360.0469360351562	1037.831787109375	-870.3342895507812	-233.4109039306641	830.2310180664062	-842.3696899414062	-255.6585083007812	827.4778442382812	-921.7581787109375	-269.7619018554688	953.0703125	-909.2692260742188	-254.8766784667969	740.8905029296875	-919.885986328125	-220.840087890625	732.2815551757812	-865.069580078125	-501.09716796875	1359.294677734375	-545.42919921875	-546.5712890625	1294.165405273438	-506.1007385253906	-562.2823486328125	1032.553100585938	-469.6000366210938	-518.981201171875	1020.872314453125	-554.4930419921875	-411.8239440917969	849.1873168945312	-391.5308837890625	-476.6841735839844	831.3276977539062	-363.3568115234375	-544.35693359375	973.0849609375	-434.8900451660156	-390.8874816894531	679.2232055664062	-351.7560119628906	-459.84814453125	748.3411865234375	-345.7378234863281	-489.3779296875	1565.070556640625	-619.533935546875	-293.3897094726562	1580.506713867188	-617.332763671875	-384.5512390136719	1574.884155273438	-536.9285888671875	-380.7358703613281	1569.3173828125	-736.8768310546875	-304.6643676757812	955.4210205078125	-827.9695434570312	-489.5783081054688	916.5364990234375	-520.1985473632812	-348.9132995605469	933.7367553710938	-499.971435546875	-231.3499908447266	956.7534790039062	-733.259765625	-150.9573516845703	484.3350524902344	-738.3005981445312	-190.6623687744141	617.2285766601562	-772.3490600585938	-195.6983184814453	39.27876663208008	-810.8003540039062	-159.7055511474609	250.2864227294922	-779.408447265625	-89.6536865234375	39.96512603759766	-613.6211547851562	-166.6977996826172	39.58966827392578	-648.7173461914062	-98.15255737304688	37.86992263793945	-728.7471313476562	-262.7392578125	36.66443252563477	-797.477783203125	-396.298828125	437.4442749023438	-548.1399536132812	-394.2406005859375	687.20947265625	-501.4598693847656	-702.5023803710938	173.1879577636719	-693.626220703125	-458.3893432617188	333.480712890625	-585.3243408203125	-609.0208129882812	32.58377838134766	-753.2216186523438	-634.9877319335938	91.2169189453125	-779.177734375	-675.0913696289062	90.66889190673828	-686.8921508789062	-729.8096923828125	233.8533477783203	-755.4332885742188	-393.4463195800781	752.3048095703125	-348.1655578613281	-249.4364929199219	651.7351684570312	-870.5391235351562	nan	nan	nan	
135	1.34	-493.8183898925781	947.5311889648438	-659.1782836914062	-428.683349609375	952.1801147460938	-775.9522705078125	-463.5623168945312	1030.348510742188	-709.8629760742188	-274.7384033203125	1190.019165039062	-578.4800415039062	-472.5927734375	1131.548583984375	-716.92626953125	-450.6854858398438	1382.589721679688	-705.32470703125	-323.4253540039062	1308.09033203125	-608.3171997070312	-515.3726196289062	1233.591918945312	-674.632568359375	-399.1758422851562	1349.525756835938	-795.7999267578125	-301.0845336914062	1366.6845703125	-786.3108520507812	-280.7359619140625	1255.509887695312	-865.06689453125	-262.2289733886719	1059.49462890625	-892.0442504882812	-343.3081970214844	1039.159301757812	-866.9750366210938	-213.9110717773438	833.086181640625	-834.8074951171875	-234.7669830322266	829.5426635742188	-914.5513305664062	-250.6549682617188	954.9351196289062	-902.7454223632812	-232.2259063720703	743.1394653320312	-912.3421630859375	-199.0228118896484	735.3696899414062	-856.8950805664062	-493.208251953125	1360.621337890625	-543.7210083007812	-539.4970703125	1295.440551757812	-505.5741577148438	-556.32080078125	1033.575927734375	-470.8794250488281	-512.1333618164062	1022.441650390625	-555.1981811523438	-410.7300415039062	845.5565185546875	-394.1326293945312	-476.3543395996094	828.8786010742188	-367.0762329101562	-539.946533203125	973.3046264648438	-436.7441101074219	-395.0321350097656	673.9627685546875	-358.6210021972656	-461.9723815917969	744.9976806640625	-351.3644409179688	-480.1611328125	1566.288818359375	-616.9886474609375	-284.2524719238281	1582.161499023438	-612.01806640625	-376.5253295898438	1576.319702148438	-532.9171752929688	-369.9229125976562	1570.817260742188	-732.779296875	-293.6466979980469	957.0670776367188	-823.7826538085938	-483.1394958496094	916.8582153320312	-519.1624755859375	-342.7584533691406	934.7540283203125	-496.4531555175781	-221.5536346435547	957.6495971679688	-727.94921875	-146.4063262939453	483.5895385742188	-736.6018676757812	-184.0991058349609	617.3971557617188	-769.7861328125	-195.7557067871094	39.36777877807617	-810.7324829101562	-157.5023651123047	249.7580718994141	-778.5339965820312	-89.59812164306641	40.03197479248047	-613.5618896484375	-166.7700042724609	39.49245452880859	-648.6526489257812	-98.21412658691406	37.96859359741211	-728.6893920898438	-262.7804870605469	36.67233276367188	-797.4956665039062	-377.4284057617188	439.3328857421875	-539.5264892578125	-384.0491027832031	688.7904663085938	-496.6610412597656	-684.4266357421875	181.1534423828125	-689.9754638671875	-439.08349609375	336.3692932128906	-577.8516235351562	-593.2491455078125	33.99823760986328	-744.134765625	-616.9317016601562	96.13346099853516	-772.6537475585938	-659.5389404296875	98.13640594482422	-681.46533203125	-709.1544799804688	241.4482421875	-753.2106323242188	-395.5202026367188	747.0030517578125	-353.10986328125	-225.6917419433594	654.3740844726562	-862.4486083984375	nan	nan	nan	
136	1.35	-485.653076171875	948.45263671875	-658.1786499023438	-418.6262817382812	954.0038452148438	-773.7498168945312	-454.0012512207031	1032.54931640625	-708.211181640625	-266.856201171875	1190.88330078125	-572.3424072265625	-461.1912536621094	1133.377075195312	-715.1912231445312	-439.5850524902344	1384.385620117188	-702.6112060546875	-314.5827331542969	1309.116943359375	-603.0316162109375	-505.2400817871094	1235.474975585938	-673.8358764648438	-386.339599609375	1351.238159179688	-792.1133422851562	-288.2228088378906	1368.102416992188	-780.2603759765625	-265.1723022460938	1257.118041992188	-858.649169921875	-244.4616241455078	1061.318725585938	-885.5543823242188	-326.4679260253906	1040.40869140625	-863.3228759765625	-194.4654083251953	836.0222778320312	-826.7717895507812	-213.6965026855469	831.7565307617188	-906.8870239257812	-231.5735168457031	956.8244018554688	-895.870361328125	-209.3292541503906	745.643310546875	-904.413818359375	-177.1505126953125	738.6134033203125	-848.27490234375	-485.4794006347656	1361.938720703125	-541.9389038085938	-532.5751953125	1296.6943359375	-505.0650939941406	-550.6992797851562	1034.594360351562	-472.2939453125	-505.4874877929688	1024.024658203125	-556.0032958984375	-409.87255859375	842.254638671875	-396.8678588867188	-476.2557983398438	826.670166015625	-371.0171813964844	-535.843017578125	973.5679931640625	-438.7652282714844	-398.9365234375	669.38525390625	-365.6061706542969	-464.1144409179688	742.0374145507812	-357.1929321289062	-470.9897766113281	1567.529907226562	-614.3203125	-275.1874694824219	1583.773803710938	-606.5677490234375	-368.5776062011719	1577.7724609375	-528.7946166992188	-359.1583251953125	1572.288208007812	-728.5282592773438	-283.0561828613281	958.5537719726562	-819.6506958007812	-476.9149169921875	917.37255859375	-518.1181030273438	-336.7998657226562	935.8622436523438	-492.8989868164062	-211.9693145751953	958.4498901367188	-722.611328125	-142.1634216308594	482.8077697753906	-734.8287963867188	-177.8358612060547	617.5037231445312	-767.1113891601562	-195.8513946533203	39.51611328125	-810.611572265625	-155.5090789794922	249.2201995849609	-777.5669555664062	-89.50501251220703	40.07728576660156	-613.4153442382812	-166.8819274902344	39.33541488647461	-648.5521240234375	-98.30884552001953	38.09592437744141	-728.576904296875	-262.8670349121094	36.69582366943359	-797.4736328125	-358.6385803222656	441.7264404296875	-530.753662109375	-374.1524047851562	690.6586303710938	-491.720947265625	-665.1251220703125	188.2242431640625	-686.1867065429688	-419.5133056640625	339.5108337402344	-570.2450561523438	-574.7212524414062	36.24488067626953	-734.032470703125	-596.6859130859375	100.5083618164062	-765.3982543945312	-641.7621459960938	105.2667388916016	-675.490966796875	-687.7819213867188	247.5682830810547	-751.1180419921875	-397.6830444335938	742.2368774414062	-358.1767883300781	-201.8843536376953	657.1424560546875	-854.1560668945312	nan	nan	nan	
137	1.36	-477.6249084472656	949.5258178710938	-657.0567626953125	-408.8959350585938	955.7943115234375	-771.4456787109375	-444.6315307617188	1034.709594726562	-706.3536987304688	-259.2113647460938	1191.767333984375	-566.0903930664062	-450.1114196777344	1135.275512695312	-713.5029907226562	-428.636962890625	1386.197021484375	-699.7371826171875	-305.9607543945312	1310.134155273438	-597.64404296875	-495.2432250976562	1237.403930664062	-672.9481201171875	-373.6217041015625	1352.936645507812	-788.2802124023438	-275.5857849121094	1369.510009765625	-774.032470703125	-249.9332427978516	1258.702026367188	-851.9544677734375	-226.9221954345703	1063.17919921875	-878.704833984375	-309.6212463378906	1041.618774414062	-859.3322143554688	-175.1358642578125	839.1006469726562	-818.2139892578125	-192.5055999755859	834.1792602539062	-898.7139282226562	-212.5965881347656	958.7975463867188	-888.621337890625	-186.2201843261719	748.4729614257812	-896.0553588867188	-155.2610931396484	742.0863647460938	-839.1651000976562	-477.9013061523438	1363.258911132812	-540.0796508789062	-525.7886352539062	1297.948364257812	-504.560546875	-545.4296264648438	1035.648559570312	-473.8735656738281	-499.031494140625	1025.660278320312	-556.9204711914062	-409.2249450683594	839.3114013671875	-399.718994140625	-476.371337890625	824.7277221679688	-375.1818237304688	-532.045654296875	973.9103393554688	-440.978271484375	-402.55908203125	665.48583984375	-372.609619140625	-466.2561340332031	739.4795532226562	-363.1909790039062	-461.86767578125	1568.807250976562	-611.5146484375	-266.1986389160156	1585.34228515625	-600.98828125	-360.6927490234375	1579.24072265625	-524.5570068359375	-348.4560852050781	1573.733764648438	-724.1221923828125	-272.8145446777344	959.8754272460938	-815.5231323242188	-470.8250122070312	918.1395874023438	-516.96533203125	-330.9560852050781	937.0929565429688	-489.3359375	-202.5590209960938	959.1881103515625	-717.2827758789062	-138.2060546875	481.99462890625	-732.9776000976562	-171.8538818359375	617.5476684570312	-764.33544921875	-195.9920959472656	39.72773361206055	-810.4341430664062	-153.7117919921875	248.6752014160156	-776.5022583007812	-89.37816619873047	40.09366989135742	-613.1769409179688	-167.0328826904297	39.11863327026367	-648.412109375	-98.44568634033203	38.25878143310547	-728.4091186523438	-263.0012817382812	36.73503112792969	-797.4110107421875	-340.0829162597656	444.6640930175781	-521.8359375	-364.5207214355469	692.840576171875	-486.6250305175781	-644.681396484375	194.1556701660156	-682.2095336914062	-399.8266296386719	342.9039306640625	-562.4637451171875	-553.682861328125	39.06742477416992	-723.3582763671875	-574.4938354492188	104.2264175415039	-757.6103515625	-621.9375	111.6779479980469	-669.0921630859375	-665.7718505859375	252.1324615478516	-748.9808349609375	-399.8781127929688	738.0394287109375	-363.2956848144531	-178.0227966308594	660.1029052734375	-845.6062622070312	nan	nan	nan	
